<svg width="49" height="49" viewBox="0 0 49 49" fill="none" xmlns="http://www.w3.org/2000/svg">
<path d="M38.6489 48.8609L0.187501 48.8609L0.1875 10.3861C0.1875 5.11676 4.45479 0.851075 9.72614 0.851075L38.6489 0.851074C43.9202 0.851074 48.1875 5.11676 48.1875 10.3861L48.1875 39.298C48.1875 44.5952 43.9202 48.8609 38.6489 48.8609Z" fill="#F5F5F5"/>
<path d="M34.2348 31.5544V32.6708C34.2348 33.8989 33.23 34.9037 32.0019 34.9037H16.3716C15.1323 34.9037 14.1387 33.8989 14.1387 32.6708V17.0405C14.1387 15.8124 15.1323 14.8076 16.3716 14.8076H32.0019C33.23 14.8076 34.2348 15.8124 34.2348 17.0405V18.157H24.1867C22.9475 18.157 21.9538 19.1618 21.9538 20.3899V29.3215C21.9538 30.5496 22.9475 31.5544 24.1867 31.5544H34.2348ZM24.1867 29.3215H35.3512V20.3899H24.1867V29.3215ZM28.6525 26.5303C27.7259 26.5303 26.9778 25.7823 26.9778 24.8557C26.9778 23.929 27.7259 23.181 28.6525 23.181C29.5792 23.181 30.3272 23.929 30.3272 24.8557C30.3272 25.7823 29.5792 26.5303 28.6525 26.5303Z" fill="#263238"/>
<path d="M38.6469 48.8604L0.185547 48.8604L0.185547 10.3856C0.185547 5.11627 4.45284 0.850586 9.72419 0.850586L38.6469 0.850586C43.9183 0.850586 48.1855 5.11627 48.1855 10.3856L48.1855 39.2975C48.1855 44.5947 43.9183 48.8604 38.6469 48.8604Z" fill="#F5F5F5"/>
<rect x="6.31641" y="10.5786" width="35.7376" height="28.5536" rx="5" fill="#263238"/>
<path d="M17.7184 20.6294C13.5452 20.6294 10.1582 24.0164 10.1582 28.1896C10.1582 32.3629 13.5452 35.7499 17.7184 35.7499C21.8917 35.7499 25.2787 32.3629 25.2787 28.1896C25.2787 24.0164 21.8917 20.6294 17.7184 20.6294ZM18.4745 33.4818H16.9624V31.9697H18.4745V33.4818ZM20.0394 27.6226L19.359 28.3182C18.8147 28.87 18.4745 29.3237 18.4745 30.4577H16.9624V30.0797C16.9624 29.2481 17.3026 28.492 17.847 27.9401L18.7844 26.9875C19.0642 26.7154 19.2305 26.3374 19.2305 25.9216C19.2305 25.0899 18.5501 24.4095 17.7184 24.4095C16.8868 24.4095 16.2064 25.0899 16.2064 25.9216H14.6943C14.6943 24.2507 16.0476 22.8975 17.7184 22.8975C19.3892 22.8975 20.7425 24.2507 20.7425 25.9216C20.7425 26.5869 20.4704 27.1917 20.0394 27.6226Z" fill="#F5F5F5"/>
</svg>
