<svg width="274" height="269" viewBox="0 0 274 269" fill="none" xmlns="http://www.w3.org/2000/svg">
<path d="M94.4851 10.71V47.7026H57.4795C52.4114 47.7026 48.3086 43.5983 48.3086 38.5282V10.71C48.3086 5.63997 52.4114 1.53564 57.4795 1.53564H85.2873C90.3823 1.53564 94.4851 5.63997 94.4851 10.71Z" fill="#90A4AE"/>
<path d="M94.4863 78.9969V154.026H19.4308C9.15145 154.026 0.830078 145.702 0.830078 135.418V78.9969C0.830078 68.7137 9.15145 60.3892 19.4308 60.3892H75.8312C86.1649 60.3892 94.4863 68.7137 94.4863 78.9969Z" fill="#F5F5F5"/>
<path d="M127.19 83.473L193.479 83.473L193.479 17.1605C193.479 8.0786 186.125 0.726563 177.039 0.726563L127.19 0.726563C118.105 0.726563 110.75 8.0786 110.75 17.1605L110.75 66.991C110.75 76.121 118.105 83.473 127.19 83.473Z" fill="#F5F5F5"/>
<path d="M240.403 268.643L105.038 268.643L105.038 133.231C105.038 114.685 120.057 99.6719 138.61 99.6719L240.403 99.6719C258.956 99.6719 273.975 114.685 273.975 133.231L273.975 234.986C273.975 253.63 258.956 268.643 240.403 268.643Z" fill="#7EAFFF"/>
</svg>
