<svg width="49" height="49" viewBox="0 0 49 49" fill="none" xmlns="http://www.w3.org/2000/svg">
<path d="M39.2543 48.8604L0.792969 48.8604L0.792969 10.3856C0.792969 5.11627 5.06026 0.850586 10.3316 0.850586L39.2543 0.850586C44.5257 0.850586 48.793 5.11627 48.793 10.3856L48.793 39.2975C48.793 44.5947 44.5257 48.8604 39.2543 48.8604Z" fill="#F5F5F5"/>
<rect x="10.1641" y="12.0137" width="29.2568" height="25.6832" rx="4.5" fill="#263238" stroke="#263238"/>
<rect x="13.9531" y="16.1973" width="14.8363" height="2.00495" rx="1.00248" fill="#F5F5F5"/>
<rect x="13.9531" y="20.9678" width="22.0918" height="2.00495" rx="1.00248" fill="#F5F5F5"/>
<rect x="13.9531" y="25.7383" width="22.0918" height="2.00495" rx="1.00248" fill="#F5F5F5"/>
<rect x="13.9531" y="30.5088" width="22.0918" height="2.00495" rx="1.00248" fill="#F5F5F5"/>
<rect x="32.8066" y="14.3369" width="3.83846" height="3.72062" rx="1.86031" fill="#F5F5F5"/>
</svg>
